PathFileType	4	(X/Y/Z)	E:/New_biomech_experiments/27_06_2024_Shreyas_Arm26_updated ground/Afternoon session/Neeraj_PP_27_6_24_elbow_flexion_t01.trc										
DataRate	CameraRate	NumFrames	NumMarkers	Units	OrigDataRate	OrigDataStartFrame	OrigNumFrames						
120	120	75	4	m	120	816	6524						
Frame#	Time	r_acromion			r_humerus_epicondyle			r_radius_styloid			RHAND		
		X1	Y1	Z1	X2	Y2	Z2	X3	Y3	Z3	X4	Y4	Z4
													
816	6.792	0.00123	0.89042	0.21649	-0.01588	0.54493	0.24254	0.08657	0.2799	0.28048	0.12222	0.19225	0.24643
817	6.8	0.00124	0.89042	0.2165	-0.01588	0.54493	0.24255	0.08657	0.2799	0.2805	0.12221	0.19225	0.24644
818	6.808	0.00125	0.89042	0.2165	-0.01588	0.54493	0.24255	0.08657	0.27991	0.28051	0.12221	0.19224	0.24646
819	6.817	0.00125	0.89041	0.2165	-0.01588	0.54493	0.24256	0.08657	0.27991	0.28053	0.12221	0.19224	0.24647
820	6.825	0.00126	0.89041	0.2165	-0.01589	0.54492	0.24257	0.08657	0.2799	0.28055	0.12222	0.19224	0.24649
821	6.833	0.00126	0.8904	0.2165	-0.01588	0.54492	0.24258	0.08657	0.2799	0.28056	0.12223	0.19224	0.2465
822	6.842	0.00127	0.89039	0.21651	-0.01588	0.54491	0.24259	0.08658	0.2799	0.28058	0.12224	0.19224	0.24652
823	6.85	0.00127	0.89038	0.21651	-0.01587	0.54491	0.2426	0.08659	0.27989	0.2806	0.12225	0.19223	0.24654
824	6.858	0.00128	0.89038	0.21652	-0.01586	0.5449	0.24261	0.0866	0.27989	0.28062	0.12226	0.19222	0.24656
825	6.867	0.00128	0.89037	0.21653	-0.01584	0.5449	0.24261	0.0866	0.27988	0.28063	0.12227	0.19221	0.24658
826	6.875	0.00129	0.89036	0.21653	-0.01583	0.54489	0.24262	0.08661	0.27988	0.28065	0.12227	0.1922	0.2466
827	6.883	0.00129	0.89035	0.21654	-0.01581	0.54489	0.24262	0.08662	0.27987	0.28066	0.12228	0.19219	0.24662
828	6.892	0.0013	0.89034	0.21655	-0.01579	0.54488	0.24262	0.08663	0.27986	0.28067	0.12229	0.19218	0.24664
829	6.9	0.0013	0.89033	0.21656	-0.01577	0.54487	0.24262	0.08663	0.27985	0.28067	0.12229	0.19217	0.24665
830	6.908	0.00131	0.89033	0.21656	-0.01575	0.54487	0.24262	0.08664	0.27984	0.28068	0.1223	0.19215	0.24666
831	6.917	0.00132	0.89032	0.21657	-0.01574	0.54486	0.24262	0.08664	0.27983	0.28068	0.1223	0.19214	0.24666
832	6.925	0.00133	0.89031	0.21658	-0.01572	0.54485	0.24262	0.08665	0.27982	0.28067	0.12231	0.19213	0.24665
833	6.933	0.00134	0.8903	0.21658	-0.01571	0.54483	0.24261	0.08666	0.27981	0.28067	0.12232	0.19212	0.24665
834	6.942	0.00136	0.89029	0.21659	-0.01569	0.54482	0.24261	0.08667	0.27979	0.28066	0.12234	0.19211	0.24664
835	6.95	0.00138	0.89028	0.21659	-0.01568	0.54481	0.2426	0.08667	0.27978	0.28064	0.12235	0.19211	0.24662
836	6.958	0.0014	0.89027	0.2166	-0.01567	0.5448	0.24259	0.08668	0.27977	0.28063	0.12238	0.1921	0.24661
837	6.967	0.00142	0.89026	0.21661	-0.01565	0.54479	0.24258	0.08669	0.27975	0.28061	0.12241	0.1921	0.24659
838	6.975	0.00143	0.89025	0.21661	-0.01563	0.54478	0.24257	0.0867	0.27974	0.28059	0.12244	0.1921	0.24657
839	6.983	0.00145	0.89024	0.21662	-0.01561	0.54477	0.24256	0.08672	0.27973	0.28056	0.12247	0.1921	0.24655
840	6.992	0.00147	0.89023	0.21663	-0.01559	0.54476	0.24255	0.08673	0.27971	0.28054	0.12249	0.19209	0.24653
841	7	0.00148	0.89022	0.21663	-0.01557	0.54475	0.24253	0.08674	0.27969	0.28052	0.12252	0.19208	0.2465
842	7.008	0.0015	0.89022	0.21664	-0.01554	0.54473	0.24252	0.08676	0.27968	0.28049	0.12254	0.19207	0.24648
843	7.017	0.00152	0.89021	0.21664	-0.01552	0.54472	0.24251	0.08678	0.27966	0.28047	0.12258	0.19207	0.24646
844	7.025	0.00154	0.89021	0.21665	-0.0155	0.5447	0.2425	0.08681	0.27965	0.28044	0.12261	0.19207	0.24643
845	7.033	0.00156	0.8902	0.21665	-0.01548	0.54469	0.24249	0.08683	0.27964	0.28042	0.12265	0.19207	0.24641
846	7.042	0.00158	0.8902	0.21665	-0.01546	0.54467	0.24248	0.08686	0.27962	0.28039	0.1227	0.19207	0.24639
847	7.05	0.0016	0.8902	0.21665	-0.01544	0.54465	0.24247	0.08689	0.27961	0.28037	0.12274	0.19207	0.24636
848	7.058	0.00162	0.89019	0.21666	-0.01542	0.54464	0.24246	0.08691	0.2796	0.28035	0.12278	0.19206	0.24634
849	7.067	0.00165	0.89018	0.21667	-0.01539	0.54463	0.24246	0.08694	0.27959	0.28033	0.12283	0.19206	0.24633
850	7.075	0.00167	0.89017	0.21668	-0.01537	0.54462	0.24245	0.08697	0.27958	0.28032	0.12286	0.19206	0.24631
851	7.083	0.00169	0.89017	0.21669	-0.01535	0.5446	0.24244	0.087	0.27956	0.2803	0.1229	0.19205	0.2463
852	7.092	0.00171	0.89015	0.2167	-0.01532	0.54459	0.24244	0.08703	0.27955	0.28029	0.12294	0.19205	0.24629
853	7.1	0.00174	0.89014	0.2167	-0.01529	0.54458	0.24243	0.08705	0.27954	0.28028	0.12296	0.19204	0.24627
854	7.108	0.00176	0.89012	0.2167	-0.01527	0.54457	0.24243	0.08708	0.27952	0.28027	0.12299	0.19202	0.24626
855	7.117	0.00178	0.89011	0.21671	-0.01524	0.54456	0.24243	0.0871	0.27951	0.28026	0.123	0.19201	0.24625
856	7.125	0.0018	0.89011	0.21671	-0.01521	0.54456	0.24242	0.08711	0.27949	0.28025	0.12301	0.19199	0.24624
857	7.133	0.00182	0.89011	0.21672	-0.01519	0.54455	0.24242	0.08712	0.27947	0.28024	0.12302	0.19198	0.24624
858	7.142	0.00183	0.89012	0.21673	-0.01517	0.54454	0.24241	0.08712	0.27946	0.28023	0.12301	0.19196	0.24623
859	7.15	0.00184	0.89013	0.21674	-0.01516	0.54453	0.24241	0.08711	0.27944	0.28022	0.123	0.19194	0.24622
860	7.158	0.00185	0.89015	0.21676	-0.01515	0.54452	0.2424	0.0871	0.27943	0.28021	0.12299	0.19192	0.24621
861	7.167	0.00187	0.89015	0.21677	-0.01514	0.54451	0.24239	0.08709	0.27941	0.28021	0.12296	0.19189	0.24621
862	7.175	0.00189	0.89016	0.21678	-0.01514	0.5445	0.24238	0.08707	0.27939	0.2802	0.12294	0.19187	0.2462
863	7.183	0.0019	0.89016	0.2168	-0.01515	0.54448	0.24237	0.08704	0.27936	0.28019	0.12291	0.19184	0.24619
864	7.192	0.00192	0.89016	0.21682	-0.01515	0.54447	0.24235	0.08702	0.27934	0.28018	0.12288	0.19181	0.24618
865	7.2	0.00194	0.89015	0.21683	-0.01516	0.54445	0.24234	0.08699	0.27932	0.28017	0.12284	0.19179	0.24617
866	7.208	0.00197	0.89015	0.21685	-0.01517	0.54444	0.24233	0.08696	0.27929	0.28016	0.12281	0.19176	0.24616
867	7.217	0.00199	0.89015	0.21686	-0.01519	0.54442	0.24231	0.08692	0.27927	0.28014	0.12277	0.19173	0.24615
868	7.225	0.00201	0.89015	0.21687	-0.01521	0.5444	0.2423	0.08688	0.27924	0.28013	0.12273	0.1917	0.24613
869	7.233	0.00204	0.89014	0.21688	-0.01523	0.54438	0.24228	0.08684	0.27921	0.28011	0.12269	0.19167	0.24612
870	7.242	0.00207	0.89013	0.21689	-0.01525	0.54437	0.24226	0.0868	0.27919	0.2801	0.12265	0.19165	0.2461
871	7.25	0.0021	0.89012	0.2169	-0.01527	0.54435	0.24224	0.08676	0.27916	0.28008	0.12261	0.19162	0.24609
872	7.258	0.00214	0.8901	0.2169	-0.01529	0.54433	0.24222	0.08672	0.27913	0.28007	0.12257	0.19159	0.24607
873	7.267	0.00217	0.89009	0.2169	-0.0153	0.54431	0.2422	0.08668	0.27911	0.28005	0.12253	0.19156	0.24605
874	7.275	0.0022	0.89009	0.21691	-0.01531	0.54429	0.24218	0.08664	0.27908	0.28003	0.12249	0.19154	0.24603
875	7.283	0.00223	0.89008	0.21691	-0.01533	0.54427	0.24215	0.0866	0.27906	0.28001	0.12245	0.19151	0.24601
876	7.292	0.00227	0.89008	0.2169	-0.01534	0.54425	0.24213	0.08656	0.27903	0.27999	0.12241	0.19148	0.24598
877	7.3	0.00231	0.89007	0.2169	-0.01534	0.54424	0.2421	0.08653	0.27901	0.27996	0.12238	0.19145	0.24595
878	7.308	0.00236	0.89005	0.21691	-0.01535	0.54422	0.24208	0.0865	0.27899	0.27994	0.12236	0.19143	0.24591
879	7.317	0.00241	0.89003	0.21693	-0.01535	0.54421	0.24206	0.08647	0.27896	0.27991	0.12233	0.19141	0.24587
880	7.325	0.00247	0.89001	0.21694	-0.01534	0.54419	0.24204	0.08645	0.27894	0.27988	0.12231	0.19138	0.24583
881	7.333	0.00253	0.89	0.21694	-0.01533	0.54418	0.24201	0.08644	0.27891	0.27985	0.12229	0.19136	0.24579
882	7.342	0.00259	0.88998	0.21695	-0.01532	0.54416	0.24199	0.08642	0.27889	0.27982	0.12228	0.19133	0.24575
883	7.35	0.00266	0.88997	0.21696	-0.01531	0.54415	0.24197	0.08641	0.27886	0.27978	0.12226	0.1913	0.24571
884	7.358	0.00272	0.88995	0.21697	-0.0153	0.54413	0.24194	0.08641	0.27884	0.27975	0.12225	0.19128	0.24567
885	7.367	0.0028	0.88994	0.21697	-0.01528	0.54412	0.24192	0.08641	0.27882	0.27972	0.12225	0.19125	0.24562
886	7.375	0.00287	0.88993	0.21698	-0.01526	0.5441	0.2419	0.08641	0.2788	0.27968	0.12225	0.19123	0.24558
887	7.383	0.00295	0.88992	0.21698	-0.01524	0.54409	0.24189	0.08642	0.27879	0.27965	0.12226	0.19121	0.24553
888	7.392	0.00303	0.88991	0.21699	-0.01521	0.54408	0.24187	0.08643	0.27877	0.27962	0.12228	0.19119	0.24549
889	7.4	0.00311	0.8899	0.217	-0.01518	0.54408	0.24185	0.08645	0.27876	0.27959	0.1223	0.19118	0.24545
890	7.408	0.00318	0.8899	0.21701	-0.01514	0.54407	0.24184	0.08647	0.27874	0.27956	0.12233	0.19116	0.24541
